<svg id="Layer_1" data-name="Layer 1" xmlns="http://www.w3.org/2000/svg" viewBox="0 0 1080 1080"><defs><style>.cls-1{fill:#00d9ff;}.cls-2{fill:#ff00d9;}.cls-3{fill:#fff}</style></defs><path class="cls-3" d="M397.11,628A55,55,0,0,1,452,682.89V985.11A55,55,0,0,1,397.11,1040H94.89A55,55,0,0,1,40,985.11V682.89A55,55,0,0,1,94.89,628H397.11m0-40H94.89A94.89,94.89,0,0,0,0,682.89V985.11A94.89,94.89,0,0,0,94.89,1080H397.11A94.89,94.89,0,0,0,492,985.11V682.89A94.89,94.89,0,0,0,397.11,588Z"/><path class="cls-1" d="M715,628H985.11A55,55,0,0,1,1040,682.89V953l39.7,39.7q.3-3.76.3-7.59V682.89A94.89,94.89,0,0,0,985.11,588H682.89q-3.82,0-7.59.3Z"/><path class="cls-1" d="M953,1040H682.89A55,55,0,0,1,628,985.11V715l-39.7-39.7q-.3,3.76-.3,7.59V985.11A94.89,94.89,0,0,0,682.89,1080H985.11q3.82,0,7.59-.3Z"/><path class="cls-2" d="M127,40H397.11A55,55,0,0,1,452,94.89V365l39.7,39.7q.3-3.76.3-7.59V94.89A94.89,94.89,0,0,0,397.11,0H94.89Q91.07,0,87.3.3Z"/><path class="cls-2" d="M365,452H94.89A55,55,0,0,1,40,397.11V127L.3,87.3Q0,91.07,0,94.89V397.11A94.89,94.89,0,0,0,94.89,492H397.11q3.83,0,7.59-.3Z"/><path class="cls-3" d="M1060.27,192.3,675,0V46.09L1035.44,226,675,405.91V452l385.26-192.3c12-6,19.47-18.91,19.47-33.7S1072.27,198.3,1060.27,192.3Z"/></svg>
